# xmcd
#
# Track frame offsets: 
#        150
#        26167
#        39959
#        64785
#        81886
#        98214
#        117008
#        132834
#        146480
#        161233
#        177296
#        197093
#        211721
#        229665
#        243610
#        264828
#        277408
#        301949
#
# Disc length: 4239 seconds
#
# Revision: 0
# Processed by: cddbd v1.5.2PL0 Copyright (c) Steve Scherf et al.
# Submitted via: ExactAudioCopy v1.0b3
#
DISCID=fc108d12
DTITLE=Various Artist - Oklahoma Blues Tribute To JJ Cale
DYEAR=2010
DGENRE=Blues
TTITLE0=JJ Grey and Swamp Cabbage - Money Talks
TTITLE1=Jimmy Hall and Swamp Cabbage - Don't Cry Sister
TTITLE2=Jimmy Hall and Swamp Cabbage - Sensitive Kind
TTITLE3=Swamp Cabbage - Cajun Moon
TTITLE4=Swamp Cabbage - Old Blues
TTITLE5=Rufus Huff - Cocaine
TTITLE6=Rufus Huff - Crazy Mama
TTITLE7=Dixie Tabernacle - Any Way The Wind Blows
TTITLE8=Dixie Tabernacle - Lies
TTITLE9=The Persuasions - I'll Make Love To You Anytime
TTITLE10=The Persuasions - Travelin' Light
TTITLE11=Tim and Roddy Smith's Groove Gang - Ride Me High
TTITLE12=Tim and Roddy Smith's Groove Gang - Louisiana Women
TTITLE13=Gregg Skaff and Darryl Johnson - Don't Wait
TTITLE14=Jimmy Hall with Greg Skaff - Money Talks
TTITLE15=Walter Parks - Sensitive Kind
TTITLE16=Michael Powers - Louisiana Women
TTITLE17=Michael Powers - Travelin' Light
EXTD=
EXTT0=
EXTT1=
EXTT2=
EXTT3=
EXTT4=
EXTT5=
EXTT6=
EXTT7=
EXTT8=
EXTT9=
EXTT10=
EXTT11=
EXTT12=
EXTT13=
EXTT14=
EXTT15=
EXTT16=
EXTT17=
PLAYORDER=
